:SAMPLES-PER-SECOND 30
:FULLY-SPECIFIED
:DEGREES
832
root  6.7842 38.9286 -7.92157 179.859 -53.2213 172.877
RightUpLeg  -10.7688 -10.5413 -9.96153
RightLeg  -4.23351 12.0519 -1.06596
RightFoot  0.816384 -1.18165 11.1293
RightToes  -2.21189e-009 0 -3.6325e-017
Spine  7.56418 -2.05428 -1.59264
Spine1  8.11331 -1.09076 -5.38066
HEad  -29.8924 8.01661 -9.8589
LeftShoulder1  0.140624 3.1058 -29.2035
LeftArm  12.3938 -13.2842 -53.8422
LeftForeArm  12.9407 -19.7362 -5.42365
LeftHand  -0.0720416 2.74664 2.59213
RightShoulder  -0.313658 -4.44509 26.1541
RightArm  13.4788 -1.20359 52.2261
RightForeArm  6.75847 11.5046 6.62685
RightHand  -0.343295 4.23128 -4.42561
LeftUpLeg  10.3385 7.22596 -2.99439
LeftLeg  11.3366 -1.00525 -0.951172
LeftFoot  -15.1234 0.255916 4.99
LeftToes  -4.03379e-008 1.61488e-010 -5.81581e-011
833
root  6.2065 38.8548 -8.81675 179.218 -53.8021 173.62
RightUpLeg  -10.8267 -9.78971 -8.73702
RightLeg  -2.37951 14.1501 -0.998262
RightFoot  5.33193 -1.44622 10.1114
RightToes  -2.21189e-009 0 -3.6325e-017
Spine  7.36949 -1.94234 -0.675858
Spine1  8.87722 -1.13067 -4.36995
HEad  -30.0914 7.76961 -11.1661
LeftShoulder1  0.0753911 3.29218 -29.5111
LeftArm  12.6235 -12.739 -54.1498
LeftForeArm  13.0418 -19.9206 -5.3327
LeftHand  -0.0864485 2.31893 2.85033
RightShoulder  -0.33155 -4.49854 26.2142
RightArm  12.2791 -1.443 52.5229
RightForeArm  11.122 7.81098 7.06759
RightHand  -0.267211 2.6505 -4.06975
LeftUpLeg  12.2324 7.35047 -1.68938
LeftLeg  10.9941 -1.95443 -0.553579
LeftFoot  -16.2596 0.276064 4.16013
LeftToes  -4.03379e-008 1.61488e-010 -5.81581e-011
834
root  5.58221 38.8097 -9.72094 177.365 -53.9456 175.215
RightUpLeg  -10.6235 -8.85088 -7.24294
RightLeg  0.732592 14.9202 -0.552741
RightFoot  10.7767 -1.59382 8.47541
RightToes  -2.21189e-009 0 -3.6325e-017
Spine  7.89811 -1.82888 1.37997
Spine1  9.00983 -0.963474 -3.83434
HEad  -29.6271 8.10803 -12.1386
LeftShoulder1  0.0319079 3.4157 -30.0942
LeftArm  12.8138 -11.3955 -53.5102
LeftForeArm  13.955 -19.8719 -5.34349
LeftHand  -0.0642577 2.72952 2.24181
RightShoulder  -0.31123 -4.43137 26.3572
RightArm  11.7161 -2.29123 52.5395
RightForeArm  14.6273 4.99392 6.94675
RightHand  -0.208939 2.19375 -3.38487
LeftUpLeg  14.9417 7.19816 -0.0403279
LeftLeg  10.2145 -2.34434 0.115954
LeftFoot  -17.0947 0.250927 2.93976
LeftToes  -4.03379e-008 1.61488e-010 -5.81581e-011
835
root  4.95728 38.8764 -10.5957 175.181 -54.8674 177.856
RightUpLeg  -10.7544 -8.62152 -5.71827
RightLeg  5.01499 13.603 1.11543
RightFoot  9.2162 -0.849673 5.03419
RightToes  -2.21189e-009 0 -3.6325e-017
Spine  8.07824 -2.21046 4.29377
Spine1  8.75373 -1.19957 -3.64563
HEad  -29.0594 8.13403 -12.5986
LeftShoulder1  0.0181969 3.45414 -30.4289
LeftArm  12.0162 -9.41715 -52.6953
LeftForeArm  15.3401 -19.0233 -5.75936
LeftHand  -0.0593321 2.88638 2.04482
RightShoulder  -0.38816 -4.64725 26.9371
RightArm  11.1718 -3.21778 51.843
RightForeArm  17.1416 3.40668 6.67971
RightHand  -0.152966 1.32422 -2.78901
LeftUpLeg  15.8751 5.52843 1.75829
LeftLeg  11.401 -2.04958 0.831939
LeftFoot  -17.0643 0.141702 0.802252
LeftToes  -4.03379e-008 1.61488e-010 -5.81581e-011
836
root  4.36263 38.9527 -11.4777 173.665 -56.282 -179.841
RightUpLeg  -10.3042 -8.44242 -4.5828
RightLeg  7.44001 11.816 1.96447
RightFoot  6.51935 -0.649322 4.42708
RightToes  -2.21189e-009 0 -3.6325e-017
Spine  7.84739 -2.69419 6.18833
Spine1  8.35681 -1.68683 -2.94753
HEad  -28.009 7.93473 -12.8689
LeftShoulder1  0.0539337 3.35646 -30.4153
LeftArm  8.45011 -7.28961 -52.0917
LeftForeArm  18.7011 -16.5683 -6.88642
LeftHand  -0.0366385 3.73035 1.26782
RightShoulder  -0.426584 -4.75192 27.2361
RightArm  10.3834 -4.50288 50.9015
RightForeArm  17.2986 3.01222 6.30114
RightHand  -0.109501 1.53334 -1.97641
LeftUpLeg  14.5934 1.64605 2.9774
LeftLeg  15.699 -0.401233 0.775117
LeftFoot  -16.6024 -0.018919 -2.59963
LeftToes  -4.03379e-008 1.61488e-010 -5.81581e-011
837
root  3.85311 39.0024 -12.3327 173.26 -58.0802 -178.978
RightUpLeg  -9.98614 -8.71672 -4.09283
RightLeg  9.88268 10.2996 2.36872
RightFoot  3.76549 -0.49221 3.88867
RightToes  -2.21189e-009 0 -3.6325e-017
Spine  7.63059 -3.16975 6.55796
Spine1  8.33348 -2.27645 -1.39174
HEad  -26.7135 7.61707 -11.888
LeftShoulder1  0.00259175 3.4959 -30.0797
LeftArm  2.75871 -5.79302 -51.5328
LeftForeArm  23.6028 -12.4451 -8.35207
LeftHand  -0.0338995 4.32816 1.1714
RightShoulder  -0.393859 -4.65733 27.1359
RightArm  9.61452 -5.95647 50.3556
RightForeArm  16.4192 3.66745 5.93441
RightHand  -0.0927045 1.28656 -1.73475
LeftUpLeg  12.1761 -1.54278 3.85922
LeftLeg  21.5495 0.036695 0.263503
LeftFoot  -14.8113 -0.109099 -6.81511
LeftToes  -4.03379e-008 1.61488e-010 -5.81581e-011
